<svg width="26" height="24" viewBox="0 0 26 24" fill="none" xmlns="http://www.w3.org/2000/svg">
<path d="M22.1777 3.75H3.21933C3.11293 3.75 3.02588 3.83437 3.02588 3.9375V5.4375C3.02588 5.54062 3.11293 5.625 3.21933 5.625H22.1777C22.2841 5.625 22.3711 5.54062 22.3711 5.4375V3.9375C22.3711 3.83437 22.2841 3.75 22.1777 3.75ZM22.1777 18.375H3.21933C3.11293 18.375 3.02588 18.4594 3.02588 18.5625V20.0625C3.02588 20.1656 3.11293 20.25 3.21933 20.25H22.1777C22.2841 20.25 22.3711 20.1656 22.3711 20.0625V18.5625C22.3711 18.4594 22.2841 18.375 22.1777 18.375ZM22.1777 11.0625H3.21933C3.11293 11.0625 3.02588 11.1469 3.02588 11.25V12.75C3.02588 12.8531 3.11293 12.9375 3.21933 12.9375H22.1777C22.2841 12.9375 22.3711 12.8531 22.3711 12.75V11.25C22.3711 11.1469 22.2841 11.0625 22.1777 11.0625Z" fill="#262626"/>
</svg>
