<svg width="38" height="43" viewBox="0 0 38 43" fill="none" xmlns="http://www.w3.org/2000/svg">
<path d="M3.67404 38.8063L4.30763 34.6298L7.7517 37.703L3.67404 38.8063Z" fill="#1F3087"/>
<path d="M4.7329 34.3595L3.43391 37.3518C3.08073 38.1654 3.88289 39.0019 4.71057 38.6832L7.69249 37.5349" stroke="#6BB8FF"/>
<path d="M5.45357 33.3154C5.76709 32.384 6.25404 31.5175 6.88712 30.7663L30.1238 3.19212C31.2815 1.81828 33.3338 1.64309 34.7076 2.80083C36.0815 3.95856 36.2566 6.01081 35.0989 7.38466L12.0785 34.7022C11.3143 35.6091 10.3535 36.33 9.26915 36.8102C7.02665 37.8034 4.66863 35.6473 5.45357 33.3154Z" fill="#1F3087" stroke="#6BB8FF"/>
<path d="M27.8228 5.96777L32.5414 10.2146L33.8209 11.494C34.1705 11.8437 34.2121 12.3963 33.9188 12.7943L27.8228 21.0676" stroke="#6BB8FF"/>
</svg>
