<svg width="28" height="32" viewBox="0 0 28 32" fill="none" xmlns="http://www.w3.org/2000/svg">
<path d="M27.1016 0.21875L27.4531 7.67188H26.5625C26.3906 6.35938 26.1562 5.42188 25.8594 4.85938C25.375 3.95312 24.7266 3.28906 23.9141 2.86719C23.1172 2.42969 22.0625 2.21094 20.75 2.21094H16.2734V26.4922C16.2734 28.4453 16.4844 29.6641 16.9062 30.1484C17.5 30.8047 18.4141 31.1328 19.6484 31.1328H20.75V32H7.27344V31.1328H8.39844C9.74219 31.1328 10.6953 30.7266 11.2578 29.9141C11.6016 29.4141 11.7734 28.2734 11.7734 26.4922V2.21094H7.95312C6.46875 2.21094 5.41406 2.32031 4.78906 2.53906C3.97656 2.83594 3.28125 3.40625 2.70312 4.25C2.125 5.09375 1.78125 6.23438 1.67188 7.67188H0.78125L1.15625 0.21875H27.1016Z" fill="black"/>
</svg>
