<svg width="60" height="60" viewBox="0 0 60 60" fill="none" xmlns="http://www.w3.org/2000/svg">
<rect x="0.5" y="0.5" width="59" height="59" rx="9.5" stroke="#C4C4C4"/>
<rect x="0.5" y="0.5" width="59" height="59" rx="9.5" stroke="black" stroke-opacity="0.2"/>
<path d="M55 31C55 35.9445 53.5338 40.778 50.7867 44.8893C48.0397 49.0005 44.1352 52.2048 39.5671 54.097C34.9989 55.9892 29.9723 56.4843 25.1227 55.5196C20.2732 54.555 15.8186 52.174 12.3223 48.6777C8.82602 45.1814 6.445 40.7268 5.48037 35.8773C4.51574 31.0277 5.01082 26.0011 6.90301 21.4329C8.7952 16.8648 11.9995 12.9603 16.1107 10.2133C20.222 7.46622 25.0555 6 30 6V31H55Z" fill="#C4C4C4"/>
<path d="M55 31C55 35.9445 53.5338 40.778 50.7867 44.8893C48.0397 49.0005 44.1352 52.2048 39.5671 54.097C34.9989 55.9892 29.9723 56.4843 25.1227 55.5196C20.2732 54.555 15.8186 52.174 12.3223 48.6777C8.82602 45.1814 6.445 40.7268 5.48037 35.8773C4.51574 31.0277 5.01082 26.0011 6.90301 21.4329C8.7952 16.8648 11.9995 12.9603 16.1107 10.2133C20.222 7.46622 25.0555 6 30 6V31H55Z" fill="black" fill-opacity="0.2"/>
<path d="M31 4C34.283 4 37.5339 4.64664 40.5671 5.90301C43.6002 7.15938 46.3562 9.00087 48.6777 11.3223C50.9991 13.6438 52.8406 16.3998 54.097 19.4329C55.3534 22.4661 56 25.717 56 29L31 29V4Z" fill="#FF0000"/>
<path d="M31 4C34.283 4 37.5339 4.64664 40.5671 5.90301C43.6002 7.15938 46.3562 9.00087 48.6777 11.3223C50.9991 13.6438 52.8406 16.3998 54.097 19.4329C55.3534 22.4661 56 25.717 56 29L31 29V4Z" fill="black" fill-opacity="0.2"/>
</svg>
